<svg width="200" height="200" viewBox="0 0 200 200" xmlns="http://www.w3.org/2000/svg">
  <!-- Background -->
  <rect width="200" height="200" fill="#FF1B6D" rx="20"/>
  
  <!-- Inner background -->
  <rect x="10" y="10" width="180" height="180" fill="#5AFFFF" rx="15"/>
  
  <!-- Park bench -->
  <!-- Bench seat -->
  <rect x="40" y="110" width="120" height="15" fill="#8B4513" rx="3"/>
  <rect x="40" y="125" width="120" height="8" fill="#654321"/>
  
  <!-- Bench back slats -->
  <rect x="45" y="80" width="25" height="35" fill="#A0522D" rx="2"/>
  <rect x="75" y="80" width="25" height="35" fill="#A0522D" rx="2"/>
  <rect x="105" y="80" width="25" height="35" fill="#A0522D" rx="2"/>
  <rect x="135" y="80" width="20" height="35" fill="#A0522D" rx="2"/>
  
  <!-- Bench legs -->
  <rect x="50" y="125" width="8" height="25" fill="#654321"/>
  <rect x="142" y="125" width="8" height="25" fill="#654321"/>
  
  <!-- Bench armrests -->
  <rect x="35" y="105" width="8" height="20" fill="#8B4513" rx="2"/>
  <rect x="157" y="105" width="8" height="20" fill="#8B4513" rx="2"/>
  <rect x="35" y="100" width="15" height="8" fill="#A0522D" rx="2"/>
  <rect x="150" y="100" width="15" height="8" fill="#A0522D" rx="2"/>
  
  <!-- Ethereum logo sitting on bench -->
  <g transform="translate(100, 70)">
    <!-- Ethereum diamond shape -->
    <path d="M 0,-35 L -20,0 L 0,25 L 20,0 Z" fill="#627EEA"/>
    
    <!-- Inner highlights -->
    <path d="M 0,-35 L -20,0 L 0,-10 Z" fill="#8198EE"/>
    <path d="M 0,-35 L 20,0 L 0,-10 Z" fill="#C2CCF2"/>
    <path d="M 0,-10 L -20,0 L 0,25 Z" fill="#343434"/>
    <path d="M 0,-10 L 20,0 L 0,25 Z" fill="#5A5A5A"/>
    
    <!-- Center line -->
    <line x1="0" y1="-35" x2="0" y2="-10" stroke="#FFFFFF" stroke-width="1" opacity="0.5"/>
    <line x1="0" y1="-10" x2="0" y2="25" stroke="#FFFFFF" stroke-width="1" opacity="0.3"/>
  </g>
  
  <!-- Ground/grass -->
  <rect x="0" y="150" width="200" height="50" fill="#4CAF50" rx="0 0 20 20"/>
  
  <!-- Grass texture lines -->
  <line x1="20" y1="160" x2="20" y2="155" stroke="#2E7D32" stroke-width="2"/>
  <line x1="40" y1="165" x2="40" y2="158" stroke="#2E7D32" stroke-width="2"/>
  <line x1="60" y1="160" x2="60" y2="155" stroke="#2E7D32" stroke-width="2"/>
  <line x1="80" y1="162" x2="80" y2="157" stroke="#2E7D32" stroke-width="2"/>
  <line x1="100" y1="160" x2="100" y2="155" stroke="#2E7D32" stroke-width="2"/>
  <line x1="120" y1="163" x2="120" y2="156" stroke="#2E7D32" stroke-width="2"/>
  <line x1="140" y1="160" x2="140" y2="155" stroke="#2E7D32" stroke-width="2"/>
  <line x1="160" y1="162" x2="160" y2="157" stroke="#2E7D32" stroke-width="2"/>
  <line x1="180" y1="160" x2="180" y2="155" stroke="#2E7D32" stroke-width="2"/>
  
  <!-- Shadow under bench -->
  <ellipse cx="100" cy="148" rx="65" ry="8" fill="#388E3C" opacity="0.5"/>
</svg>